<svg xmlns="http://www.w3.org/2000/svg" version="1.1" xmlns:xlink="http://www.w3.org/1999/xlink" width="101" height="101"><svg viewBox="0 0 101 101" fill="none" xmlns="http://www.w3.org/2000/svg" class="">
<path fill-rule="evenodd" clip-rule="evenodd" d="M52.8684 42.7886L76.4387 19.0713L71.388 13.9889L53.9144 31.5716V0H46.7715V31.5716L29.2982 13.9889L24.2475 19.0713L47.8177 42.7886L50.343 45.3299L52.8684 42.7886ZM57.9177 47.8711L81.488 24.1536L86.5387 29.2359L69.0653 46.8184H100.245V54.0059H69.0653L86.5387 71.5887L81.488 76.671L57.9177 52.9534L55.3923 50.4122L57.9177 47.8711ZM19.1981 76.671L42.7682 52.9534L45.2937 50.4122L42.7682 47.8711L19.1981 24.1536L14.1473 29.2359L31.6208 46.8184H0.25V54.0059H31.6208L14.1473 71.5887L19.1981 76.671ZM47.8177 58.0357L24.2475 81.7533L29.2982 86.8355L46.7715 69.253V100.625H53.9144V69.253L71.388 86.8355L76.4387 81.7533L52.8684 58.0357L50.343 55.4944L47.8177 58.0357Z" fill="currentColor"></path>
</svg><style>@media (prefers-color-scheme: light) { :root { filter: none; } }
</style></svg>